<?xml version="1.0" encoding="utf-8"?>
<!-- Generator: Adobe Illustrator 27.0.0, SVG Export Plug-In . SVG Version: 6.00 Build 0)  -->
<svg version="1.1" id="Layer_1" xmlns="http://www.w3.org/2000/svg" xmlns:xlink="http://www.w3.org/1999/xlink" x="0px" y="0px"
	 viewBox="0 0 330.8 138.8" style="enable-background:new 0 0 330.8 138.8;" xml:space="preserve">
<style type="text/css">
	.st0{fill:#0098C6;}
</style>
<g>
	<g>
		<path d="M117,104.1h3.6l12.4,29.8h0.3l12.4-29.8h3.6v34.2h-2.9v-27.6h-0.3l-11.5,27.6h-2.8l-11.5-27.6h-0.3v27.6H117V104.1z"/>
		<path d="M168.1,138.8c-2.4,0-4.5-0.6-6.2-1.7c-1.7-1.1-3.1-2.7-4-4.7s-1.4-4.3-1.4-6.9c0-2.6,0.5-4.9,1.4-6.9s2.3-3.6,4-4.7
			c1.7-1.1,3.6-1.7,5.8-1.7c1.4,0,2.7,0.3,4,0.8c1.3,0.5,2.4,1.3,3.5,2.3s1.8,2.3,2.4,3.9c0.6,1.6,0.9,3.4,0.9,5.6v1.5h-20v-2.6h17
			c0-1.6-0.3-3.1-1-4.4c-0.7-1.3-1.6-2.4-2.8-3.1c-1.2-0.8-2.5-1.2-4.1-1.2c-1.6,0-3.1,0.4-4.3,1.3c-1.2,0.9-2.2,2-2.9,3.4
			c-0.7,1.4-1,3-1.1,4.7v1.6c0,2,0.4,3.8,1.1,5.3c0.7,1.5,1.7,2.7,3,3.5c1.3,0.8,2.8,1.3,4.6,1.3c1.2,0,2.3-0.2,3.2-0.6
			s1.7-0.9,2.3-1.5s1.1-1.3,1.4-2.1l2.8,0.9c-0.4,1.1-1,2.1-1.9,3c-0.9,0.9-2,1.6-3.3,2.2S169.8,138.8,168.1,138.8z"/>
		<path d="M195.1,112.6v2.6h-12.2v-2.6H195.1z M186.7,106.5h3v25.1c0,1.1,0.2,1.9,0.5,2.5c0.4,0.6,0.8,1,1.4,1.3
			c0.6,0.2,1.2,0.4,1.9,0.4c0.4,0,0.7,0,1-0.1c0.3,0,0.5-0.1,0.7-0.2l0.6,2.7c-0.3,0.1-0.6,0.2-1.1,0.3c-0.4,0.1-0.9,0.1-1.6,0.1
			c-1.1,0-2.1-0.2-3.1-0.7c-1-0.5-1.8-1.2-2.5-2.1s-1-2.1-1-3.5V106.5z"/>
		<path d="M201.8,138.2v-25.6h2.9v3.9h0.2c0.5-1.3,1.4-2.3,2.7-3.1c1.3-0.8,2.7-1.2,4.3-1.2c0.2,0,0.5,0,0.8,0c0.3,0,0.5,0,0.8,0v3
			c-0.1,0-0.4-0.1-0.7-0.1c-0.3,0-0.7-0.1-1.1-0.1c-1.3,0-2.5,0.3-3.6,0.8c-1,0.6-1.9,1.3-2.5,2.3c-0.6,1-0.9,2.1-0.9,3.4v16.5
			H201.8z"/>
		<path d="M220.1,108.2c-0.6,0-1.1-0.2-1.6-0.6s-0.7-0.9-0.7-1.5s0.2-1.1,0.7-1.5c0.4-0.4,1-0.6,1.6-0.6c0.6,0,1.1,0.2,1.6,0.6
			s0.7,0.9,0.7,1.5s-0.2,1.1-0.7,1.5S220.7,108.2,220.1,108.2z M218.6,138.2v-25.6h3v25.6H218.6z"/>
		<path d="M239.4,138.8c-2.2,0-4.2-0.6-5.9-1.7c-1.7-1.1-3-2.7-4-4.7c-1-2-1.4-4.3-1.4-6.9c0-2.6,0.5-4.9,1.4-6.9c1-2,2.3-3.6,4-4.7
			s3.6-1.7,5.9-1.7c2.2,0,4.2,0.6,5.9,1.7c1.7,1.1,3,2.7,4,4.7s1.4,4.3,1.4,6.9c0,2.6-0.5,4.9-1.4,6.9s-2.3,3.5-4,4.7
			C243.6,138.2,241.6,138.8,239.4,138.8z M239.4,136c1.8,0,3.3-0.5,4.5-1.4c1.2-1,2.2-2.2,2.8-3.8c0.6-1.6,1-3.3,1-5.3
			s-0.3-3.7-1-5.3c-0.6-1.6-1.6-2.9-2.8-3.9s-2.7-1.5-4.5-1.5c-1.8,0-3.3,0.5-4.5,1.5c-1.2,1-2.2,2.3-2.8,3.9c-0.6,1.6-1,3.4-1,5.3
			s0.3,3.7,1,5.3c0.6,1.6,1.6,2.9,2.8,3.8C236.1,135.6,237.6,136,239.4,136z"/>
	</g>
	<g>
		<path d="M245.6,42.4c-7.1,0-10.8,3.8-10.8,11.9c0,7.1,4.1,11.6,10.9,11.6c1.3,0,2.8,0,4.8-0.3V42.9
			C248.7,42.5,247.1,42.4,245.6,42.4 M245.6,71.7c-11.4,0-18.4-6.6-18.4-17.2c0-11.1,6.5-17.9,17-17.9h0.8c1.3,0,3.1,0,5.6,0.3V23.7
			h7.4v46.8C258.1,70.3,251,71.7,245.6,71.7"/>
		<polygon points="144,70.5 123.9,35.6 123.9,70.5 117,70.5 117,26.3 126.8,26.3 146.8,60.9 146.8,26.3 153.9,26.3 153.9,70.5 		"/>
		<path d="M207.8,71.2c-3.3,0-6.9-0.3-11.1-1.2l-0.5-0.2v-6.1l0.7,0.2c3.6,0.8,7,1.5,10.1,1.5c2.6,0,8.6-0.3,8.6-4.1
			c0-3.1-4.1-4-7.4-4.6H208c-0.7-0.2-1.2-0.2-1.7-0.3c-5-1.3-10.1-3.1-10.1-9.8c0-6.5,5.1-10.1,13.9-10.1c4.3,0,7.3,0.5,9.8,0.8
			l1.2,0.2v6l-0.7-0.2c-2.8-0.5-6.1-1-9.3-1c-3.5,0-7.6,0.7-7.6,3.8c0,2.6,3.5,3.3,7.3,4.1c5.5,1.2,12.4,2.6,12.4,10.3
			C223.1,67.2,217.6,71.2,207.8,71.2"/>
		<path d="M281.5,54.6c-6.3,0-10.3,1-10.3,5.6c0,5.3,5,5.8,9.8,5.8c1.8,0,5-0.2,6-0.3V54.8C285.4,54.8,282,54.6,281.5,54.6
			 M278.8,71.2c-7.6,0-14.7-1.3-14.7-11.1c0-10.6,10.9-10.6,17.5-10.6c0.7,0,3.8,0.2,4.6,0.2c0-6-0.2-7.4-8.8-7.4
			c-3.5,0-7.3,0.7-10.6,1.3l-0.7,0.2v-6l0.5-0.2c4-0.8,7.6-1.2,11.6-1.2c8.4,0,15.6,0.8,15.6,11.3v22.8h-0.5
			C287.4,71.2,282.8,71.2,278.8,71.2"/>
		<path d="M177.4,54.6c-6.3,0-10.3,1-10.3,5.6c0,5.3,5,5.8,9.8,5.8c1.8,0,5-0.2,6-0.3V54.8C181.4,54.8,177.9,54.6,177.4,54.6
			 M174.9,71.2c-7.6,0-14.7-1.3-14.7-11.1c0-10.6,10.9-10.6,17.5-10.6c0.7,0,3.8,0.2,4.6,0.2c0-6-0.2-7.4-8.8-7.4
			c-3.5,0-7.3,0.7-10.6,1.3l-0.7,0.2v-6l0.5-0.2c4-0.8,7.6-1.2,11.6-1.2c8.4,0,15.6,0.8,15.6,11.3v22.8h-0.5
			C183.3,71.2,178.7,71.2,174.9,71.2"/>
		<path d="M318.9,42.4c-7.6,0-11.4,3.8-11.4,11.4c0,9.8,5.6,11.7,10.4,11.7c1.2,0,2.5,0,5.3-0.3V42.5
			C321.2,42.4,320.2,42.4,318.9,42.4 M323.3,85.5V71c-3,0.3-4.5,0.3-5.6,0.3c-3,0-6.1-0.7-8.8-1.7c-5.6-2.3-9.1-8.3-9.1-16.1
			c0-3.8,1-10.8,7.1-14.6c3.1-1.8,6.8-2.6,12.4-2.6c2,0,4.6,0.2,7.3,0.3l4.1,0.2v45.2L323.3,85.5z"/>
		<path class="st0" d="M83.9,0L59.2,67.3c-0.7,1.7-2.2,2.8-4,3.1h26c2,0,3.8-1.3,4.5-3.1L110.2,0H83.9z"/>
		<path class="st0" d="M53.3,69.5c1.5,0,2.8-0.7,3.6-1.8c0.2-0.2,0.3-0.5,0.7-1.2l8.9-24.7l-5.3-14.6c-0.7-1.7-2.3-2.8-4.1-2.8
			c-1.5,0-2.8,0.7-3.6,1.8c-0.2,0.2-0.5,0.7-0.7,1.2l-8.9,24.7l5.3,14.6C49.8,68.3,51.5,69.5,53.3,69.5"/>
		<path class="st0" d="M55.1,23.5H29c-2,0-3.8,1.3-4.5,3.1L0,94h26.5L51,26.6C51.6,25,53.3,23.7,55.1,23.5"/>
	</g>
</g>
</svg>
